<svg xmlns="http://www.w3.org/2000/svg" viewBox="0 0 24 24" fill="#07C160">
  <path d="M8.691 2.188C3.891 2.188 0 5.476 0 9.53c0 2.212 1.17 4.203 3.002 5.55a.59.59 0 0 1 .213.665l-.39 1.48c-.019.07-.048.141-.048.213 0 .163.13.295.29.295a.326.326 0 0 0 .167-.054l1.903-1.114a.864.864 0 0 1 .717-.098 10.16 10.16 0 0 0 2.837.403c.276 0 .543-.027.811-.05-.857-2.578.157-4.972 1.932-6.446 1.703-1.415 4.882-1.932 7.621-.5-.452-3.672-4.204-6.686-8.364-6.686zM5.785 7.328c.48 0 .869.398.869.889 0 .49-.389.889-.869.889-.48 0-.87-.398-.87-.889 0-.49.39-.889.87-.889zm5.813 0c.48 0 .87.398.87.889 0 .49-.39.889-.87.889-.48 0-.869-.398-.869-.889 0-.49.389-.889.869-.889zm8.402 2.853c-4.8 0-8.691 3.288-8.691 7.342 0 4.055 3.891 7.344 8.691 7.344.276 0 .543-.027.811-.05l1.903 1.114a.326.326 0 0 0 .167.054c.16 0 .29-.132.29-.295 0-.072-.029-.143-.048-.213l-.39-1.48a.59.59 0 0 1 .213-.665C23.83 16.975 25 14.984 25 12.772c0-4.054-3.891-7.342-8.691-7.342zm-2.604 4.65c.48 0 .869.398.869.889 0 .49-.389.889-.869.889-.48 0-.87-.398-.87-.889 0-.49.39-.889.87-.889zm5.208 0c.48 0 .87.398.87.889 0 .49-.39.889-.87.889-.48 0-.869-.398-.869-.889 0-.49.389-.889.869-.889z"/>
</svg>