<svg width="64" height="64" viewBox="0 0 64 64" fill="none" xmlns="http://www.w3.org/2000/svg">
  <rect width="64" height="64" rx="12" fill="#07C160"/>
  <path d="M20.5 18C15.8056 18 12 21.8056 12 26.5C12 29.5 13.5 32.1667 15.8333 33.8333L14.5 38.5L19.1667 36.1667C20.1667 36.5 21.3056 36.6667 22.5 36.6667C23.1944 36.6667 23.8611 36.5833 24.5 36.4167C24.1667 35.3889 24 34.2778 24 33.1111C24 27.5556 28.4444 23.1111 34 23.1111C34.6111 23.1111 35.2222 23.1667 35.8056 23.2778C34.6944 20.2222 27.9444 18 20.5 18Z" fill="white"/>
  <circle cx="17.5" cy="28" r="1.5" fill="#07C160"/>
  <circle cx="23.5" cy="28" r="1.5" fill="#07C160"/>
  <path d="M34 25C29.5817 25 26 28.134 26 32C26 34.5 27.25 36.75 29.25 38.25L28.125 42L32 39.875C32.875 40.125 33.875 40.25 35 40.25C39.4183 40.25 43 37.116 43 32C43 27.884 39.4183 25 34 25Z" fill="white"/>
  <circle cx="31.5" cy="32" r="1.25" fill="#07C160"/>
  <circle cx="36.5" cy="32" r="1.25" fill="#07C160"/>
  <path d="M48 28C48 23.5817 44.866 20 40.75 20C36.634 20 33.5 23.5817 33.5 28C33.5 30.5 34.75 32.75 36.75 34.25L35.625 38L39.5 35.875C40.375 36.125 41.375 36.25 42.5 36.25C46.616 36.25 50 33.116 50 28H48Z" fill="white" fill-opacity="0.8"/>
  <circle cx="38" cy="28" r="1" fill="#07C160"/>
  <circle cx="42" cy="28" r="1" fill="#07C160"/>
</svg>